<?xml version="1.0" encoding="UTF-8" standalone="no"?>
<!DOCTYPE svg PUBLIC "-//W3C//DTD SVG 1.1//EN"
 "http://www.w3.org/Graphics/SVG/1.1/DTD/svg11.dtd">
<!-- Generated by graphviz version 7.1.0 (20230121.1956)
 -->
<!-- Pages: 1 -->
<svg width="664pt" height="332pt"
 viewBox="0.00 0.00 663.53 332.00" xmlns="http://www.w3.org/2000/svg" xmlns:xlink="http://www.w3.org/1999/xlink">
<g id="graph0" class="graph" transform="scale(1 1) rotate(0) translate(4 328)">
<polygon fill="white" stroke="none" points="-4,4 -4,-328 659.53,-328 659.53,4 -4,4"/>
<!-- [root] ___ROOT___#build -->
<g id="node1" class="node">
<title>[root] ___ROOT___#build</title>
<ellipse fill="none" stroke="black" cx="295.84" cy="-90" rx="105.88" ry="18"/>
<text text-anchor="middle" x="295.84" y="-86.3" font-family="Times,serif" font-size="14.00">[root] ___ROOT___#build</text>
</g>
<!-- [root] ___ROOT___ -->
<g id="node2" class="node">
<title>[root] ___ROOT___</title>
<ellipse fill="none" stroke="black" cx="295.84" cy="-18" rx="83.39" ry="18"/>
<text text-anchor="middle" x="295.84" y="-14.3" font-family="Times,serif" font-size="14.00">[root] ___ROOT___</text>
</g>
<!-- [root] ___ROOT___#build&#45;&gt;[root] ___ROOT___ -->
<g id="edge1" class="edge">
<title>[root] ___ROOT___#build&#45;&gt;[root] ___ROOT___</title>
<path fill="none" stroke="black" d="M295.84,-71.7C295.84,-64.41 295.84,-55.73 295.84,-47.54"/>
<polygon fill="black" stroke="black" points="299.34,-47.62 295.84,-37.62 292.34,-47.62 299.34,-47.62"/>
</g>
<!-- [root] camera&#45;app#build -->
<g id="node3" class="node">
<title>[root] camera&#45;app#build</title>
<ellipse fill="none" stroke="black" cx="96.84" cy="-162" rx="96.68" ry="18"/>
<text text-anchor="middle" x="96.84" y="-158.3" font-family="Times,serif" font-size="14.00">[root] camera&#45;app#build</text>
</g>
<!-- [root] camera&#45;app#build&#45;&gt;[root] ___ROOT___#build -->
<g id="edge2" class="edge">
<title>[root] camera&#45;app#build&#45;&gt;[root] ___ROOT___#build</title>
<path fill="none" stroke="black" d="M140.51,-145.64C169.89,-135.31 208.86,-121.6 240.41,-110.5"/>
<polygon fill="black" stroke="black" points="241.54,-113.81 249.81,-107.19 239.22,-107.21 241.54,-113.81"/>
</g>
<!-- [root] docs#build -->
<g id="node4" class="node">
<title>[root] docs#build</title>
<ellipse fill="none" stroke="black" cx="516.84" cy="-306" rx="71.49" ry="18"/>
<text text-anchor="middle" x="516.84" y="-302.3" font-family="Times,serif" font-size="14.00">[root] docs#build</text>
</g>
<!-- [root] eslint&#45;config&#45;custom#build -->
<g id="node5" class="node">
<title>[root] eslint&#45;config&#45;custom#build</title>
<ellipse fill="none" stroke="black" cx="526.84" cy="-162" rx="128.88" ry="18"/>
<text text-anchor="middle" x="526.84" y="-158.3" font-family="Times,serif" font-size="14.00">[root] eslint&#45;config&#45;custom#build</text>
</g>
<!-- [root] docs#build&#45;&gt;[root] eslint&#45;config&#45;custom#build -->
<g id="edge3" class="edge">
<title>[root] docs#build&#45;&gt;[root] eslint&#45;config&#45;custom#build</title>
<path fill="none" stroke="black" d="M518.07,-287.59C519.76,-263.61 522.82,-220.14 524.84,-191.42"/>
<polygon fill="black" stroke="black" points="528.32,-191.84 525.53,-181.62 521.34,-191.35 528.32,-191.84"/>
</g>
<!-- [root] tsconfig#build -->
<g id="node6" class="node">
<title>[root] tsconfig#build</title>
<ellipse fill="none" stroke="black" cx="295.84" cy="-162" rx="83.69" ry="18"/>
<text text-anchor="middle" x="295.84" y="-158.3" font-family="Times,serif" font-size="14.00">[root] tsconfig#build</text>
</g>
<!-- [root] docs#build&#45;&gt;[root] tsconfig#build -->
<g id="edge4" class="edge">
<title>[root] docs#build&#45;&gt;[root] tsconfig#build</title>
<path fill="none" stroke="black" d="M506.84,-287.89C494.42,-268.01 471.45,-235.45 443.84,-216 419.92,-199.14 390.07,-187.11 363.46,-178.81"/>
<polygon fill="black" stroke="black" points="364.7,-175.53 354.12,-176.03 362.7,-182.24 364.7,-175.53"/>
</g>
<!-- [root] ui#build -->
<g id="node7" class="node">
<title>[root] ui#build</title>
<ellipse fill="none" stroke="black" cx="372.84" cy="-234" rx="62.29" ry="18"/>
<text text-anchor="middle" x="372.84" y="-230.3" font-family="Times,serif" font-size="14.00">[root] ui#build</text>
</g>
<!-- [root] docs#build&#45;&gt;[root] ui#build -->
<g id="edge5" class="edge">
<title>[root] docs#build&#45;&gt;[root] ui#build</title>
<path fill="none" stroke="black" d="M484.88,-289.46C464,-279.31 436.52,-265.95 414,-255.01"/>
<polygon fill="black" stroke="black" points="415.61,-251.9 405.08,-250.67 412.55,-258.19 415.61,-251.9"/>
</g>
<!-- [root] eslint&#45;config&#45;custom#build&#45;&gt;[root] ___ROOT___#build -->
<g id="edge6" class="edge">
<title>[root] eslint&#45;config&#45;custom#build&#45;&gt;[root] ___ROOT___#build</title>
<path fill="none" stroke="black" d="M474.42,-145.12C439.56,-134.55 393.64,-120.63 357.09,-109.56"/>
<polygon fill="black" stroke="black" points="358.1,-106.21 347.52,-106.66 356.07,-112.91 358.1,-106.21"/>
</g>
<!-- [root] tsconfig#build&#45;&gt;[root] ___ROOT___#build -->
<g id="edge7" class="edge">
<title>[root] tsconfig#build&#45;&gt;[root] ___ROOT___#build</title>
<path fill="none" stroke="black" d="M295.84,-143.7C295.84,-136.41 295.84,-127.73 295.84,-119.54"/>
<polygon fill="black" stroke="black" points="299.34,-119.62 295.84,-109.62 292.34,-119.62 299.34,-119.62"/>
</g>
<!-- [root] ui#build&#45;&gt;[root] eslint&#45;config&#45;custom#build -->
<g id="edge8" class="edge">
<title>[root] ui#build&#45;&gt;[root] eslint&#45;config&#45;custom#build</title>
<path fill="none" stroke="black" d="M405.12,-218.33C426.79,-208.48 455.68,-195.34 479.88,-184.34"/>
<polygon fill="black" stroke="black" points="481.25,-187.57 488.9,-180.25 478.35,-181.2 481.25,-187.57"/>
</g>
<!-- [root] ui#build&#45;&gt;[root] tsconfig#build -->
<g id="edge9" class="edge">
<title>[root] ui#build&#45;&gt;[root] tsconfig#build</title>
<path fill="none" stroke="black" d="M354.59,-216.41C345.14,-207.82 333.42,-197.16 322.93,-187.63"/>
<polygon fill="black" stroke="black" points="325.37,-185.11 315.61,-180.97 320.66,-190.29 325.37,-185.11"/>
</g>
<!-- [root] web#build -->
<g id="node8" class="node">
<title>[root] web#build</title>
<ellipse fill="none" stroke="black" cx="356.84" cy="-306" rx="70.39" ry="18"/>
<text text-anchor="middle" x="356.84" y="-302.3" font-family="Times,serif" font-size="14.00">[root] web#build</text>
</g>
<!-- [root] web#build&#45;&gt;[root] eslint&#45;config&#45;custom#build -->
<g id="edge10" class="edge">
<title>[root] web#build&#45;&gt;[root] eslint&#45;config&#45;custom#build</title>
<path fill="none" stroke="black" d="M386.77,-289.45C404.2,-279.76 426.15,-266.41 443.84,-252 467.07,-233.08 490.03,-207.81 505.89,-189.03"/>
<polygon fill="black" stroke="black" points="508.41,-191.48 512.11,-181.56 503.02,-187.01 508.41,-191.48"/>
</g>
<!-- [root] web#build&#45;&gt;[root] tsconfig#build -->
<g id="edge11" class="edge">
<title>[root] web#build&#45;&gt;[root] tsconfig#build</title>
<path fill="none" stroke="black" d="M333.02,-288.69C321.48,-279.39 308.67,-266.67 301.84,-252 293.09,-233.2 291.85,-209.72 292.66,-191.6"/>
<polygon fill="black" stroke="black" points="296.14,-192.03 293.35,-181.81 289.16,-191.54 296.14,-192.03"/>
</g>
<!-- [root] web#build&#45;&gt;[root] ui#build -->
<g id="edge12" class="edge">
<title>[root] web#build&#45;&gt;[root] ui#build</title>
<path fill="none" stroke="black" d="M360.8,-287.7C362.48,-280.32 364.49,-271.52 366.38,-263.25"/>
<polygon fill="black" stroke="black" points="369.78,-264.11 368.59,-253.58 362.95,-262.55 369.78,-264.11"/>
</g>
</g>
</svg>
