<?xml version="1.0" encoding="UTF-8" standalone="no"?>
<!DOCTYPE svg PUBLIC "-//W3C//DTD SVG 1.1//EN"
 "http://www.w3.org/Graphics/SVG/1.1/DTD/svg11.dtd">
<!-- Generated by graphviz version 7.1.0 (20230121.1956)
 -->
<!-- Pages: 1 -->
<svg width="862pt" height="188pt"
 viewBox="0.00 0.00 861.53 188.00" xmlns="http://www.w3.org/2000/svg" xmlns:xlink="http://www.w3.org/1999/xlink">
<g id="graph0" class="graph" transform="scale(1 1) rotate(0) translate(4 184)">
<polygon fill="white" stroke="none" points="-4,4 -4,-184 857.53,-184 857.53,4 -4,4"/>
<!-- [root] @capp/ui#build -->
<g id="node1" class="node">
<title>[root] @capp/ui#build</title>
<ellipse fill="none" stroke="black" cx="89.69" cy="-162" rx="89.88" ry="18"/>
<text text-anchor="middle" x="89.69" y="-158.3" font-family="Times,serif" font-size="14.00">[root] @capp/ui#build</text>
</g>
<!-- [root] ___ROOT___#build -->
<g id="node2" class="node">
<title>[root] ___ROOT___#build</title>
<ellipse fill="none" stroke="black" cx="416.69" cy="-90" rx="105.88" ry="18"/>
<text text-anchor="middle" x="416.69" y="-86.3" font-family="Times,serif" font-size="14.00">[root] ___ROOT___#build</text>
</g>
<!-- [root] @capp/ui#build&#45;&gt;[root] ___ROOT___#build -->
<g id="edge1" class="edge">
<title>[root] @capp/ui#build&#45;&gt;[root] ___ROOT___#build</title>
<path fill="none" stroke="black" d="M149.67,-148.16C203.71,-136.59 283.39,-119.54 341.64,-107.07"/>
<polygon fill="black" stroke="black" points="342.1,-110.55 351.14,-105.03 340.63,-103.7 342.1,-110.55"/>
</g>
<!-- [root] ___ROOT___ -->
<g id="node3" class="node">
<title>[root] ___ROOT___</title>
<ellipse fill="none" stroke="black" cx="416.69" cy="-18" rx="83.39" ry="18"/>
<text text-anchor="middle" x="416.69" y="-14.3" font-family="Times,serif" font-size="14.00">[root] ___ROOT___</text>
</g>
<!-- [root] ___ROOT___#build&#45;&gt;[root] ___ROOT___ -->
<g id="edge2" class="edge">
<title>[root] ___ROOT___#build&#45;&gt;[root] ___ROOT___</title>
<path fill="none" stroke="black" d="M416.69,-71.7C416.69,-64.41 416.69,-55.73 416.69,-47.54"/>
<polygon fill="black" stroke="black" points="420.19,-47.62 416.69,-37.62 413.19,-47.62 420.19,-47.62"/>
</g>
<!-- [root] camera&#45;app#build -->
<g id="node4" class="node">
<title>[root] camera&#45;app#build</title>
<ellipse fill="none" stroke="black" cx="294.69" cy="-162" rx="96.68" ry="18"/>
<text text-anchor="middle" x="294.69" y="-158.3" font-family="Times,serif" font-size="14.00">[root] camera&#45;app#build</text>
</g>
<!-- [root] camera&#45;app#build&#45;&gt;[root] ___ROOT___#build -->
<g id="edge3" class="edge">
<title>[root] camera&#45;app#build&#45;&gt;[root] ___ROOT___#build</title>
<path fill="none" stroke="black" d="M323.6,-144.41C339.74,-135.15 360.07,-123.49 377.61,-113.42"/>
<polygon fill="black" stroke="black" points="379.32,-116.48 386.25,-108.47 375.84,-110.41 379.32,-116.48"/>
</g>
<!-- [root] eslint&#45;config&#45;custom#build -->
<g id="node5" class="node">
<title>[root] eslint&#45;config&#45;custom#build</title>
<ellipse fill="none" stroke="black" cx="538.69" cy="-162" rx="128.88" ry="18"/>
<text text-anchor="middle" x="538.69" y="-158.3" font-family="Times,serif" font-size="14.00">[root] eslint&#45;config&#45;custom#build</text>
</g>
<!-- [root] eslint&#45;config&#45;custom#build&#45;&gt;[root] ___ROOT___#build -->
<g id="edge4" class="edge">
<title>[root] eslint&#45;config&#45;custom#build&#45;&gt;[root] ___ROOT___#build</title>
<path fill="none" stroke="black" d="M509.16,-144.05C493.01,-134.79 472.8,-123.19 455.4,-113.21"/>
<polygon fill="black" stroke="black" points="457.26,-110.24 446.84,-108.3 453.78,-116.31 457.26,-110.24"/>
</g>
<!-- [root] tsconfig#build -->
<g id="node6" class="node">
<title>[root] tsconfig#build</title>
<ellipse fill="none" stroke="black" cx="769.69" cy="-162" rx="83.69" ry="18"/>
<text text-anchor="middle" x="769.69" y="-158.3" font-family="Times,serif" font-size="14.00">[root] tsconfig#build</text>
</g>
<!-- [root] tsconfig#build&#45;&gt;[root] ___ROOT___#build -->
<g id="edge5" class="edge">
<title>[root] tsconfig#build&#45;&gt;[root] ___ROOT___#build</title>
<path fill="none" stroke="black" d="M709.81,-149.13C650.59,-137.38 559.65,-119.35 494.79,-106.49"/>
<polygon fill="black" stroke="black" points="495.78,-103.11 485.29,-104.6 494.41,-109.98 495.78,-103.11"/>
</g>
</g>
</svg>
